/* XPM */
static char * openpref_xpm[] = {
"32 32 271 2",
"  	c None",
". 	c #7D807A",
"+ 	c #7D7F7A",
"@ 	c #7D7F79",
"# 	c #7E807A",
"$ 	c #7E807B",
"% 	c #7E817B",
"& 	c #7F817B",
"* 	c #81847E",
"= 	c #C9CAC7",
"- 	c #FFFFFF",
"; 	c #FEFEFE",
"> 	c #FDFDFD",
", 	c #FBFBFB",
"' 	c #FAF9FA",
") 	c #F7F7F7",
"! 	c #F5F5F5",
"~ 	c #F4F4F4",
"{ 	c #F3F3F3",
"] 	c #F2F2F3",
"^ 	c #F2F1F2",
"/ 	c #F1F0F1",
"( 	c #DDDEDD",
"_ 	c #8B8D88",
": 	c #F6F6F5",
"< 	c #BDBEBD",
"[ 	c #EEEEEE",
"} 	c #F2F2F2",
"| 	c #F1F1F1",
"1 	c #F0F0F0",
"2 	c #EFEFEF",
"3 	c #ECECEC",
"4 	c #A2A4A0",
"5 	c #B7B7B7",
"6 	c #7C7C7C",
"7 	c #808080",
"8 	c #F9F9F9",
"9 	c #EDEDED",
"0 	c #EDECEC",
"a 	c #A2A3A0",
"b 	c #80827D",
"c 	c #A8AAA6",
"d 	c #92938F",
"e 	c #7D7E7C",
"f 	c #828380",
"g 	c #A7A8A5",
"h 	c #A6A7A3",
"i 	c #A6A7A4",
"j 	c #C4C5C3",
"k 	c #EBEBEB",
"l 	c #A1A39F",
"m 	c #FDFDFE",
"n 	c #FCFCFC",
"o 	c #FAFAFA",
"p 	c #F8F8F9",
"q 	c #F6F6F6",
"r 	c #F1F1F2",
"s 	c #BDBDBC",
"t 	c #C1C2C0",
"u 	c #A1A29E",
"v 	c #A8A9A6",
"w 	c #F9FBFB",
"x 	c #EBB5B5",
"y 	c #EBB3B3",
"z 	c #EFD4D4",
"A 	c #ECECED",
"B 	c #A2A39F",
"C 	c #EAEAEA",
"D 	c #A0A19E",
"E 	c #A9AAA7",
"F 	c #F9FEFE",
"G 	c #E68181",
"H 	c #E57D7D",
"I 	c #EAABAB",
"J 	c #F1F2F2",
"K 	c #E9EAE9",
"L 	c #9FA19D",
"M 	c #EEDBDB",
"N 	c #E79090",
"O 	c #F1F3F3",
"P 	c #7A7C78",
"Q 	c #E8E8E8",
"R 	c #EAEAE9",
"S 	c #E9E9E8",
"T 	c #9FA09E",
"U 	c #F5F5F6",
"V 	c #F1F4F4",
"W 	c #EBECEC",
"X 	c #E9E9E9",
"Y 	c #585956",
"Z 	c #060606",
"` 	c #BBBBBB",
" .	c #E8E8E7",
"..	c #9EA09C",
"+.	c #A7A9A5",
"@.	c #ECEBEB",
"#.	c #EBEAEA",
"$.	c #E9E8E9",
"%.	c #575955",
"&.	c #000000",
"*.	c #797979",
"=.	c #F1F1F0",
"-.	c #E7E8E7",
";.	c #E7E6E6",
">.	c #E7E8E8",
",.	c #9E9F9C",
"'.	c #EAEAE8",
").	c #E7E7E7",
"!.	c #606160",
"~.	c #E3E4E3",
"{.	c #E5E5E5",
"].	c #9D9F9B",
"^.	c #EEF5F5",
"/.	c #EDF5F5",
"(.	c #ECEFEF",
"_.	c #ECF3F3",
":.	c #ECF5F5",
"<.	c #EBEDED",
"[.	c #E7E7E6",
"}.	c #C7C7C7",
"|.	c #E2E3E2",
"1.	c #E4E4E4",
"2.	c #9D9E9B",
"3.	c #E9CBCB",
"4.	c #DD5C5C",
"5.	c #DB4747",
"6.	c #E08181",
"7.	c #E6BDBD",
"8.	c #DB5151",
"9.	c #D93C3C",
"0.	c #DE7D7D",
"a.	c #E9EBEA",
"b.	c #E9E8E8",
"c.	c #E7E8E6",
"d.	c #575855",
"e.	c #A0A09F",
"f.	c #E2E2E2",
"g.	c #9C9E9A",
"h.	c #A5A6A2",
"i.	c #DB4949",
"j.	c #DB4848",
"k.	c #DA4545",
"l.	c #D94242",
"m.	c #D83B3B",
"n.	c #D73939",
"o.	c #D73636",
"p.	c #DE7676",
"q.	c #575854",
"r.	c #D8D8D8",
"s.	c #E1E1E1",
"t.	c #9C9D9A",
"u.	c #A4A5A3",
"v.	c #E7BFBF",
"w.	c #D94141",
"x.	c #D83F3F",
"y.	c #D83D3D",
"z.	c #D73A3A",
"A.	c #D32727",
"B.	c #D01313",
"C.	c #CD0707",
"D.	c #CC0000",
"E.	c #E4F0F0",
"F.	c #E5E6E5",
"G.	c #E3E3E4",
"H.	c #535450",
"I.	c #4C4C4C",
"J.	c #1E1E1E",
"K.	c #2C2C2C",
"L.	c #B0B1B0",
"M.	c #E1E1E2",
"N.	c #9B9C99",
"O.	c #A3A4A1",
"P.	c #EBEBEA",
"Q.	c #E7C3C3",
"R.	c #D83C3C",
"S.	c #D63535",
"T.	c #D32626",
"U.	c #CF1111",
"V.	c #CD0E0E",
"W.	c #E3EDED",
"X.	c #4E504C",
"Y.	c #BABBBA",
"Z.	c #9A9C99",
"`.	c #E4E5E4",
" +	c #E5E9E9",
".+	c #CC0404",
"++	c #CB0000",
"@+	c #D98787",
"#+	c #E2E3E3",
"$+	c #6D6F6B",
"%+	c #747474",
"&+	c #E3E3E3",
"*+	c #9A9B98",
"=+	c #A3A3A1",
"-+	c #E6E6E6",
";+	c #E5E5E4",
">+	c #E4E4E3",
",+	c #DFBABA",
"'+	c #D55959",
")+	c #E3EAEA",
"!+	c #E0E0E0",
"~+	c #999B97",
"{+	c #E6E7E6",
"]+	c #E5E4E4",
"^+	c #E3E5E4",
"/+	c #DFBAB9",
"(+	c #D45858",
"_+	c #E3EBEB",
":+	c #DFDFDF",
"<+	c #A2A2A0",
"[+	c #BFBFBE",
"}+	c #999A97",
"|+	c #A3A4A2",
"1+	c #E1CECD",
"2+	c #D66463",
"3+	c #DEDEDE",
"4+	c #7B7B7B",
"5+	c #1B1B1B",
"6+	c #383938",
"7+	c #ECEBEC",
"8+	c #989A96",
"9+	c #A3A5A1",
"0+	c #E2DDDD",
"a+	c #D98080",
"b+	c #DEDEDD",
"c+	c #A8A8A7",
"d+	c #494949",
"e+	c #DDDDDD",
"f+	c #CACACA",
"g+	c #969793",
"h+	c #E3E3E2",
"i+	c #E1E7E7",
"j+	c #DFCFCF",
"k+	c #DCDCDC",
"l+	c #979994",
"m+	c #C0C0BF",
"n+	c #BEBFBD",
"o+	c #BDBFBD",
"p+	c #BDBEBC",
"q+	c #BCBDBA",
"r+	c #BCBDBB",
"s+	c #A9A9A7",
"t+	c #838580",
"u+	c #A3A5A2",
"v+	c #E1E4E4",
"w+	c #D66F6E",
"x+	c #DEC5C5",
"y+	c #DBDBDB",
"z+	c #81827D",
"A+	c #A4A5A2",
"B+	c #E2EEEE",
"C+	c #D24A4A",
"D+	c #DADEDD",
"E+	c #E1E2E3",
"F+	c #DDB5B5",
"G+	c #DDB7B6",
"H+	c #DFD5D5",
"I+	c #D5D5D4",
"J+	c #82847E",
"K+	c #828480",
"L+	c #B3B4B1",
"M+	c #C3C3C3",
"N+	c #C2C3C1",
"O+	c #C2C3C0",
"P+	c #C1C1C0",
"Q+	c #C0C1BF",
"R+	c #BFC0BE",
"S+	c #BEBFBE",
"T+	c #BEBFBC",
"U+	c #BBBBBA",
"V+	c #979895",
"                                                                ",
"                          . + @ + + . # $ $ % % % & & & *       ",
"                        = - - - ; > , ' ) ! ~ ~ { ] ^ / ( _     ",
"                      + - : < [ } | | | 1 1 1 1 2 2 [ [ 3 4     ",
"                      @ - 5 6 7 8 { } 1 1 1 2 2 2 9 9 0 3 a     ",
"      b @ @ + + + # # $ c d e f g h i j } 2 2 9 9 9 9 3 k l     ",
"    _ 9 - - - m n o p q ! ~ { { } r 1 s t 2 9 9 3 3 3 k k u     ",
"    v w x y z } | | | | 1 1 1 2 2 [ 9 A B 2 9 3 3 3 k C C D     ",
"    E F G H I J | 1 1 1 1 2 2 [ 9 9 9 k a [ 3 3 k C C K K L     ",
"    c ) M N O 1 1 1 1 2 2 2 9 9 9 3 3 C P Q k k C R S S S T     ",
"    c U | V 1 1 1 2 2 2 [ 9 9 3 3 3 W X Y Z ` 9 S S S  .Q ..    ",
"    +.~ 1 1 1 2 2 2 [ [ 9 3 3 3 @.#.C $.%.&.&.*.=. .-.;.>.,.    ",
"    g { 1 2 2 2 [ [ 9 3 3 3 W k C C '.).%.&.&.&.!.Q ~.{.-.].    ",
"    i | 2 2 [ [ ^./.(.3 _.:.<.C K S S [.%.&.&.&.&.}.|.|.1.2.    ",
"    h 1 [ [ [ 3.4.5.6.7.8.9.0.a.S b.c.{.d.&.&.&.&.e.|.f.1.g.    ",
"    h.2 [ 9 3 i.j.k.l.m.m.n.o.p.a.[.[.1.q.&.&.&.&.r.f.s.1.t.    ",
"    u.[ 9 3 v.w.l.x.y.z.A.B.C.D.E.1.F.G.H.I.J.K.L.f.M.s.1.N.    ",
"    O.P.C k Q.R.S.T.U.D.D.D.D.V.W.|.f.f.X.Y.k C s.f.s.s.1.Z.    ",
"    4 [.`.`. +.+D.D.D.D.D.D.++@+#+f.f.s.$+%+{.s.f.f.s.s.&+*+    ",
"    =+-+;+1.>+,+D.D.D.D.D.D.'+)+f.f.s.!+O.Q s.s.s.s.s.s.&+~+    ",
"    O.{+]+~.&+^+/+D.D.D.D.(+_+f.s.s.f.:+<+&+s.f.s.{.[+k &+}+    ",
"    |+{+~.~.~.&+~.1+V.++2+_+f.s.s.f.s.3+B &+f.s.&+4+5+6+7+8+    ",
"    9+F.~.~.~.~.f.f.0+a+)+f.s.f.f.s.s.b+4 &+s.s.s.c+&.d+Q 8+    ",
"    |+F.~.~.&+f.|.|.f.#+f.f.s.s.s.s.s.e+4 &+s.s.s.&+f+Q s.g+    ",
"    9+F.~.h+f.|.f.|.f.s.f.s.s.f.i+j+s.k+l+m+n+o+p+s q+r+s+t+    ",
"    u+F.f.f.|.|.|.f.s.f.f.s.s.v+w+D.x+y+z+                      ",
"    A+1.f.f.|.f.s.f.f.s.f.s.s.B+++++C+D+*                       ",
"    D F.|.|.f.f.f.s.s.f.s.s.s.E+F+G+H+I+J+                      ",
"    K+L+M+N+O+t P+Q+m+R+S+n+o+T+s r+U+V+                        ",
"                                                                ",
"                                                                ",
"                                                                "};
